<svg width="24px" height="24px" viewBox="0 0 200 200"><title>f-ogo_RGB_HEX-100</title><desc>Created with Sketch.</desc><g id="V1" stroke="none" stroke-width="1" fill="none" fill-rule="evenodd"><g id="FB" fill-rule="nonzero"><g id="f-ogo_RGB_HEX-100"><path d="M188.96,0 L10.96,0 C4.89404142,0.0439573736 -0.00015926793,4.97388216 0,11.04 L0,189.04 C0.0439573736,195.105959 4.97388216,200.000159 11.04,200 L106.84,200 L106.84,122.66 L80.84,122.66 L80.84,92.38 L106.84,92.38 L106.84,70.1 C106.84,44.28 122.62,30.2 145.66,30.2 C153.436275,30.1668848 161.208344,30.5675069 168.94,31.4 L168.94,58.4 L153.06,58.4 C140.52,58.4 138.08,64.4 138.08,73.1 L138.08,92.38 L168,92.38 L164,122.66 L138,122.66 L138,200 L188.96,200 C195.057224,200 200,195.057224 200,188.96 L200,10.96 C199.956043,4.89404142 195.026118,-0.00015926793 188.96,0 L188.96,0 Z" id="Path" fill="#4267B2"></path><path d="M138,200 L138,122.66 L164,122.66 L168,92.38 L138,92.38 L138,73.1 C138,64.36 140.44,58.4 152.98,58.4 L168.86,58.4 L168.86,31.4 C161.128344,30.5675069 153.356275,30.1668848 145.58,30.2 C122.54,30.2 106.76,44.2 106.76,70.1 L106.76,92.38 L80.76,92.38 L80.76,122.66 L106.76,122.66 L106.76,200 L138,200 Z" id="f" fill="#FFFFFF"></path></g></g></g></svg>