<svg width="24px" height="24px" viewBox="0 0 200 134"><title>Shape</title><desc>Created with Sketch.</desc><g id="V1" stroke="none" stroke-width="1" fill="none" fill-rule="evenodd"><g id="Email" transform="translate(0.000000, -33.000000)" fill="#CE5225"><path d="M19.1958904,72.4699123 C14.5835616,69.9237904 10.230137,66.4221751 6.13835616,61.9661828 C2.04657534,57.5101904 0,53.3712075 0,49.5514666 C0,44.823114 1.54383562,40.8817039 4.63150685,37.7283526 C7.71917808,34.5761175 12.1273973,33 17.8561644,33 L182.142466,33 C186.976712,33 191.163014,34.4243102 194.69726,37.2740468 C198.231507,40.1237834 200,43.5494949 200,47.5511815 C200,52.3409267 198.178082,56.9185882 194.530137,61.2819335 C190.883562,65.6475111 186.346575,69.3768374 180.915068,72.4676798 C152.939726,88.2924803 135.527397,98.1443311 128.683562,102.024349 C127.939726,102.449632 126.357534,103.372755 123.939726,104.798181 C121.521918,106.223608 119.513699,107.376674 117.913699,108.255147 C116.313699,109.133621 114.379452,110.118136 112.110959,111.20981 C109.842466,112.299251 107.70137,113.11968 105.693151,113.663284 C103.683562,114.210237 101.823288,114.481481 100.112329,114.481481 L100,114.481481 L99.8876712,114.481481 C98.1767123,114.481481 96.3164384,114.210237 94.3068493,113.663284 C92.2986301,113.11968 90.1589041,112.300367 87.8890411,111.20981 C85.6191781,110.119252 83.6849315,109.133621 82.0849315,108.255147 C80.4863014,107.376674 78.4767123,106.223608 76.0589041,104.798181 C73.6410959,103.373871 72.060274,102.449632 71.3164384,102.024349 C64.5452055,98.1454474 54.7986301,92.6134088 42.0753425,85.4293489 C29.3520548,78.2452891 21.7260274,73.9243607 19.1958904,72.4699123 Z M188.838356,85.5505164 C193.080822,83.1283013 196.8,80.4247525 200,77.4444444 L200,151.423788 C200,155.524856 198.253425,159.032379 194.754795,161.953218 C191.257534,164.874057 187.053425,166.333333 182.143836,166.333333 L17.8575342,166.333333 C12.9465753,166.333333 8.74246575,164.874057 5.24520548,161.953218 C1.74794521,159.033523 0,155.524856 0,151.423788 L0,77.4444444 C3.2739726,80.4876523 7.03150685,83.1912012 11.2726027,85.5505164 C38.2068493,100.830599 56.6958904,111.546442 66.7410959,117.695758 C70.9821918,120.304385 74.4232877,122.340052 77.0643836,123.798184 C79.7054795,125.258604 83.2219178,126.748758 87.6109589,128.270934 C92,129.79311 96.0931507,130.553626 99.8876712,130.553626 L100,130.553626 L100.113699,130.553626 C103.908219,130.553626 108,129.79311 112.389041,128.270934 C116.779452,126.748758 120.294521,125.258604 122.935616,123.798184 C125.578082,122.340052 129.019178,120.304385 133.260274,117.695758 C145.906849,110.055145 164.435616,99.3393017 188.838356,85.5505164 Z" id="Shape"></path></g></g></svg>