<svg id="Layer_1" data-name="Layer 1" viewBox="0 0 994 993.99"><defs><style>.cls-1,.cls-2{fill-rule:evenodd;}.cls-1{fill:url(#linear-gradient);}.cls-2{fill:#fff;}</style><linearGradient id="linear-gradient" x1="-1.5" y1="998" x2="-1.5" y2="997" gradientTransform="matrix(994, 0, 0, -993.99, 1986, 991997.89)" gradientUnits="userSpaceOnUse"><stop offset="0" stop-color="#00b2ff"></stop><stop offset="1" stop-color="#006aff"></stop></linearGradient></defs><g id="Page-1"><g id="Messenger_revised" data-name="Messenger revised"><path id="Bubble_Solid" data-name="Bubble Solid" class="cls-1" d="M497,.5C217,.5,0,205.6,0,482.6,0,627.5,59.4,752.7,156.1,839.2a40,40,0,0,1,13.4,28.3l2.7,88.4A39.83,39.83,0,0,0,228,991.1l98.6-43.5a39.66,39.66,0,0,1,26.5-2A540.56,540.56,0,0,0,497,964.7c280,0,497-205.1,497-482.1S777,.5,497,.5Z" transform="translate(0 -0.5)"></path><path id="Bolt" class="cls-2" d="M198.6,623.6,344.6,392a74.62,74.62,0,0,1,107.8-19.9l116.1,87.1a29.85,29.85,0,0,0,35.9-.1l156.8-119c20.9-15.9,48.3,9.2,34.2,31.4L649.5,603a74.62,74.62,0,0,1-107.8,19.9L425.6,535.8a29.85,29.85,0,0,0-35.9.1L232.8,655C211.9,670.9,184.5,645.8,198.6,623.6Z" transform="translate(0 -0.5)"></path></g></g></svg>