<svg width="24px" height="24px" viewBox="0 0 200 163"><title>Twitter_Logo_Blue</title><desc>Created with Sketch.</desc><g id="V1" stroke="none" stroke-width="1" fill="none" fill-rule="evenodd"><g id="Twitter" transform="translate(0.000000, -18.000000)" fill="#1DA1F2" fill-rule="nonzero"><g id="Twitter_Logo_Blue" transform="translate(0.000000, 18.000000)"><path d="M62.896,162.872 C138.368,162.872 179.648,100.344 179.648,46.12 C179.648,44.344 179.648,42.576 179.528,40.816 C187.558651,35.0072868 194.490844,27.8150352 200,19.576 C192.511032,22.8944142 184.566634,25.0706292 176.432,26.032 C184.997952,20.9038565 191.408988,12.8381759 194.472,3.336 C186.41726,8.11564252 177.605169,11.4840962 168.416,13.296 C155.696662,-0.228845769 135.485755,-3.53909933 119.116394,5.22143942 C102.747034,13.9819782 94.2901999,32.6346058 98.488,50.72 C65.4951659,49.0659963 34.7558062,33.4825862 13.92,7.848 C3.02898205,26.5971578 8.59190307,50.5828758 26.624,62.624 C20.0939296,62.4304604 13.706235,60.6689054 8,57.488 C8,57.656 8,57.832 8,58.008 C8.00534506,77.5407438 21.7740119,94.3642813 40.92,98.232 C34.8789568,99.8795204 28.5406447,100.120354 22.392,98.936 C27.7675834,115.651383 43.1725965,127.102271 60.728,127.432 C46.1978803,138.851456 28.2484761,145.050622 9.768,145.032 C6.50322855,145.025732 3.24163252,144.82806 0,144.44 C18.7650876,156.482212 40.5993072,162.869735 62.896,162.84" id="Path"></path></g></g></g></svg>