<svg width="24px" height="24px" viewBox="0 0 200 200"><title>WhatsApp_1_ Copy</title><desc>Created with Sketch.</desc><g id="V1" stroke="none" stroke-width="1" fill="none" fill-rule="evenodd" opacity="0.849051339"><g id="WhatsApp" fill="#00E676"><path d="M71.3706432,54.9667357 C69.4603652,50.4037872 68.0118788,50.2302969 65.1179846,50.1136131 C64.1328292,50.0568066 63.0353044,50 61.8177138,50 C58.0525728,50 54.1165689,51.0977484 51.7414206,53.523542 C48.8475264,56.4698066 41.6666667,63.3434003 41.6666667,77.4375683 C41.6666667,91.5332717 51.9723164,105.165311 53.3623092,107.073704 C54.8107956,108.977491 73.4548628,138.323453 102.40458,150.283537 C125.043144,159.641266 131.760673,158.773815 136.912728,157.677602 C144.439932,156.060918 153.877413,150.512298 156.252562,143.81373 C158.626171,137.112092 158.626171,131.393053 157.930405,130.180156 C157.236178,128.967259 155.32436,128.276369 152.430466,126.830104 C149.536572,125.385375 135.465781,118.45344 132.802783,117.529182 C130.196739,116.548117 127.707682,116.895098 125.74045,119.667872 C122.960464,123.538395 120.240512,127.467259 118.039305,129.834711 C116.302968,131.683227 113.464489,131.915059 111.09088,130.932459 C107.906057,129.605949 98.9904003,126.483124 87.9889845,116.721607 C79.4766255,109.155588 73.6872979,99.7410519 72.009455,96.9099358 C70.3300728,94.0220131 71.8355135,92.345452 73.1670127,90.7871099 C74.615499,88.9954003 76.0039525,87.7256969 77.4508996,86.0491357 C78.899386,84.3741099 79.7090607,83.5081937 80.6357225,81.5429938 C81.620878,79.637671 80.9251119,77.6724711 80.2308852,76.2277421 C79.5351191,74.7799425 73.7457915,60.6842392 71.3706432,54.9667357 Z M99.9703125,0 C44.8421875,0 0,44.8546875 0,99.9984375 C0,121.867188 7.053125,142.15 19.0421875,158.610938 L6.58125,195.765625 L45.01875,183.48125 C60.828125,193.945312 79.69375,200 100.029688,200 C155.157813,200 200,155.142188 200,100.001563 C200,44.8578125 155.157813,0.003125 100.029688,0.003125 L99.971875,0.003125 L99.971875,0 L99.9703125,0 Z" id="WhatsApp_1_-Copy"></path></g></g></svg>